<svg width="512" height="512" xmlns="http://www.w3.org/2000/svg" clip-rule="evenodd" version="1.1">

 <g>
  <title>Layer 1</title>
  <g id="svg_3">
   <path id="svg_4" d="m307,108c-6.479,0.991 -13.146,1.324 -20,1c-12.012,-10.511 -24.178,-20.845 -36.5,-31c-12.322,10.155 -24.488,20.489 -36.5,31c-6.854,0.324 -13.521,-0.009 -20,-1c18.682,-17.348 37.682,-34.348 57,-51c19.311,16.312 37.978,33.312 56,51z" fill="#57dab0"/>
  </g>
  <g id="svg_5">
   <path id="svg_6" d="m250,90c9.864,7.864 19.697,15.864 29.5,24c0.667,6.333 0.667,12.667 0,19c-9.383,-7.557 -18.883,-14.891 -28.5,-22c-10.164,6.593 -19.831,13.926 -29,22c-1.333,-6.333 -1.333,-12.667 0,-19c9.672,-7.678 19.006,-15.678 28,-24z" fill="#52d5aa"/>
  </g>
  <g id="svg_7">
   <path id="svg_8" d="m194,108c6.479,0.991 13.146,1.324 20,1c-6.844,1.319 -13.844,1.319 -21,0c0.124,-0.607 0.457,-0.94 1,-1z" fill="#aee8d6"/>
  </g>
  <g id="svg_9">
   <path id="svg_10" d="m307,108c0.543,0.06 0.876,0.393 1,1c-7.156,1.319 -14.156,1.319 -21,0c6.854,0.324 13.521,-0.009 20,-1z" fill="#9fe6ce"/>
  </g>
  <g id="svg_11">
   <path id="svg_12" d="m250,122c9.917,7.239 19.583,14.905 29,23c1.333,6 1.333,12 0,18c-9.333,-7 -18.667,-14 -28,-21c-10.257,6.756 -20.09,14.089 -29.5,22c-0.831,-6.359 -0.664,-12.693 0.5,-19c9.772,-7.207 19.105,-14.874 28,-23z" fill="#48c89b"/>
  </g>
  <g id="svg_13">
   <path id="svg_14" d="m135,165c-2.256,-0.965 -3.923,-2.632 -5,-5c-2.968,1.156 -5.135,0.156 -6.5,-3c-0.333,0.333 -0.667,0.667 -1,1c-0.483,-0.948 -0.649,-1.948 -0.5,-3c-1.333,0 -2.667,0 -4,0c-0.219,-1.175 0.114,-2.175 1,-3c30.505,-11.391 61.172,-22.391 92,-33c0,6.333 0,12.667 0,19c-25.355,9.007 -50.688,18.007 -76,27z" fill="#d4d4d5"/>
  </g>
  <g id="svg_15">
   <path id="svg_16" d="m384,199c0.167,-14.004 0,-28.004 -0.5,-42c-1.688,0.825 -1.855,1.825 -0.5,3c-1.189,0.929 -2.522,1.262 -4,1c0,1 0,2 0,3c-1.322,-0.17 -2.489,0.163 -3.5,1c-0.419,-1.172 -1.085,-2.172 -2,-3c-1.257,2.246 -3.09,3.579 -5.5,4c0.328,11.512 -0.005,22.846 -1,34c0,-11.667 0,-23.333 0,-35c-25.45,-8.595 -50.783,-17.595 -76,-27c-1.333,-6.667 -1.333,-13.333 0,-20c27.474,10.658 55.141,20.825 83,30.5c3.514,1.562 7.181,2.395 11,2.5c0.33,16.175 -0.004,32.175 -1,48z" fill="#d5d6d7"/>
  </g>
  <g id="svg_17">
   <path id="svg_18" d="m384,199c-0.126,7.528 -0.793,14.861 -2,22c0.149,-1.052 -0.017,-2.052 -0.5,-3c-0.333,1.667 -0.667,3.333 -1,5c-2.644,-0.693 -5.144,-2.36 -7.5,-5c-0.333,0.667 -0.667,1.333 -1,2c-0.692,-0.525 -1.192,-1.192 -1.5,-2c-1.356,0.88 -2.856,1.214 -4.5,1c0.4,-6.329 0.733,-12.662 1,-19c0.995,-11.154 1.328,-22.488 1,-34c2.41,-0.421 4.243,-1.754 5.5,-4c0.915,0.828 1.581,1.828 2,3c1.011,-0.837 2.178,-1.17 3.5,-1c0,-1 0,-2 0,-3c1.478,0.262 2.811,-0.071 4,-1c-1.355,-1.175 -1.188,-2.175 0.5,-3c0.5,13.996 0.667,27.996 0.5,42z" fill="#c7c7c8"/>
  </g>
  <g id="svg_19">
   <path id="svg_20" d="m118,155c1.333,0 2.667,0 4,0c-0.149,1.052 0.017,2.052 0.5,3c0.333,-0.333 0.667,-0.667 1,-1c1.365,3.156 3.532,4.156 6.5,3c1.077,2.368 2.744,4.035 5,5c0,11 0,22 0,33c-1.058,1.1 -1.892,2.434 -2.5,4c-1.147,-0.958 -2.147,-0.625 -3,1c-0.684,-1.284 -0.517,-2.451 0.5,-3.5c-3.087,-1.846 -6.254,-3.013 -9.5,-3.5c-1.431,4.135 -1.931,8.468 -1.5,13c-0.997,-17.826 -1.33,-35.826 -1,-54z" fill="#c8c9ca"/>
  </g>
  <g id="svg_21">
   <path id="svg_22" d="m316,220c-0.667,-0.667 -1.333,-1.333 -2,-2c1.739,-2.98 3.072,-6.147 4,-9.5c-1.976,-5.193 -5.643,-8.859 -11,-11c-20.534,0.225 -20.7,3.392 -0.5,9.5c0.253,2.7 0.253,5.367 0,8c1.609,2.907 3.442,5.573 5.5,8c-2.281,-0.251 -4.614,0.416 -7,2c-1.272,-0.07 -2.438,-0.403 -3.5,-1c-1,1.667 -2,3.333 -3,5c-0.333,-1 -0.667,-2 -1,-3c-0.941,2.227 -2.108,4.227 -3.5,6c-6.373,-9.548 -13.373,-18.715 -21,-27.5c-1.333,-0.667 -2.667,-0.667 -4,0c-6.37,3.517 -12.704,7.017 -19,10.5c-6.558,-4.446 -13.558,-8.113 -21,-11c-4.325,3.492 -8.158,7.492 -11.5,12c-4.275,6.905 -8.775,13.572 -13.5,20c-0.709,-0.904 -1.709,-1.237 -3,-1c0.157,-1.373 -0.01,-2.707 -0.5,-4c-0.813,1.936 -1.313,3.936 -1.5,6c-1.052,0.149 -2.052,-0.017 -3,-0.5c-0.039,-1.245 0.295,-2.578 1,-4c-2.139,-4.082 -4.972,-4.582 -8.5,-1.5c-0.333,-0.333 -0.667,-0.667 -1,-1c-0.923,1.259 -1.757,2.592 -2.5,4c-0.826,-2.048 -0.159,-3.715 2,-5c0.952,-1.545 1.285,-3.212 1,-5c2.058,-2.427 3.891,-5.093 5.5,-8c-0.055,-2.415 -0.388,-4.748 -1,-7c4.762,-2.167 9.596,-4.334 14.5,-6.5c1,-1 2,-2 3,-3c-6.276,-1.424 -12.609,-1.758 -19,-1c-3.13,2.128 -5.963,4.628 -8.5,7.5c-0.553,2.859 -0.386,5.692 0.5,8.5c-0.125,1.627 -0.625,3.127 -1.5,4.5c-3.575,4.153 -6.909,8.486 -10,13c0.25,-11.173 1.917,-22.173 5,-33c6.19,-4.928 13.19,-8.261 21,-10c8.764,1.949 17.597,3.116 26.5,3.5c-9.874,-7.972 -21.208,-11.306 -34,-10c7.347,-4.675 15.014,-8.842 23,-12.5c12.962,5.725 23.462,14.391 31.5,26c0.667,-4.667 0.667,-9.333 0,-14c-6.608,-5.941 -13.775,-11.108 -21.5,-15.5c6.333,-0.667 12.667,-0.667 19,0c2.908,0.689 5.575,1.855 8,3.5c8.539,-4.246 17.539,-5.579 27,-4c-7.613,4.724 -14.779,10.058 -21.5,16c-0.667,4.667 -0.667,9.333 0,14c7.345,-11.343 17.179,-19.843 29.5,-25.5c9.154,2.075 17.487,6.075 25,12c-12.401,-1.786 -23.401,1.214 -33,9c9.976,-0.993 19.976,-1.66 30,-2c5.12,2.06 10.12,4.393 15,7c1.689,2.557 2.856,5.391 3.5,8.5c2.25,8.908 3.584,17.908 4,27c-3.976,-5.477 -8.142,-10.81 -12.5,-16c-0.929,1.189 -1.262,2.522 -1,4z" fill="#55c2d3"/>
  </g>
  <g id="svg_23">
   <path id="svg_24" d="m314,218c-0.941,1.55 -1.607,3.216 -2,5c-2.058,-2.427 -3.891,-5.093 -5.5,-8c0.253,-2.633 0.253,-5.3 0,-8c-20.2,-6.108 -20.034,-9.275 0.5,-9.5c5.357,2.141 9.024,5.807 11,11c-0.928,3.353 -2.261,6.52 -4,9.5z" fill="#f3f7f7"/>
  </g>
  <g id="svg_25">
   <path id="svg_26" d="m294,232c1.712,2.396 2.212,5.062 1.5,8c-4.439,6.555 -8.605,13.221 -12.5,20c-1.608,1.585 -3.275,2.751 -5,3.5c-4.161,-4.662 -7.827,-9.662 -11,-15c0.578,-1.811 1.078,-3.645 1.5,-5.5c4.826,-1.414 8.826,-4.081 12,-8c2.137,-3.725 0.97,-5.725 -3.5,-6c-4.678,1.674 -9.345,3.341 -14,5c-0.187,8.82 1.646,17.153 5.5,25c3.363,5.509 6.863,10.842 10.5,16c-1.876,16.938 -10.209,21.105 -25,12.5c-1.102,-2.401 -1.269,-4.901 -0.5,-7.5c3.81,-3.9 7.81,-7.566 12,-11c0.49,-1.293 0.657,-2.627 0.5,-4c-10.667,0 -21.333,0 -32,0c-0.157,1.373 0.01,2.707 0.5,4c4.3,3.298 8.3,6.965 12,11c0.769,2.599 0.602,5.099 -0.5,7.5c-5.216,2.191 -10.549,3.524 -16,4c-6.233,-4.294 -8.733,-10.127 -7.5,-17.5c2.347,-2.694 4.18,-5.694 5.5,-9c7.407,-9.046 10.074,-19.379 8,-31c-4.243,-1.957 -8.576,-3.624 -13,-5c-2.636,-0.194 -4.303,0.972 -5,3.5c2.019,1.688 3.686,3.688 5,6c3.009,1.504 6.009,3.004 9,4.5c1.062,2.603 1.228,5.27 0.5,8c-4.075,4.565 -7.909,9.232 -11.5,14c-2.766,-4.545 -5.766,-8.878 -9,-13c-3.748,-4.83 -6.415,-10.163 -8,-16c4.725,-6.428 9.225,-13.095 13.5,-20c3.342,-4.508 7.175,-8.508 11.5,-12c7.442,2.887 14.442,6.554 21,11c6.296,-3.483 12.63,-6.983 19,-10.5c1.333,-0.667 2.667,-0.667 4,0c7.627,8.785 14.627,17.952 21,27.5z" fill="#f7f9f8"/>
  </g>
  <g id="svg_27">
   <path id="svg_28" d="m135,198c0.683,18.479 2.683,36.813 6,55c-3.463,0.828 -5.796,-0.672 -7,-4.5c0.51,-1.826 1.344,-1.993 2.5,-0.5c0.87,-0.608 1.37,-1.441 1.5,-2.5c-0.857,-2.882 -1.857,-5.715 -3,-8.5c1.054,-2.193 0.72,-3.693 -1,-4.5c2.1,-3.304 2.433,-6.804 1,-10.5c0.295,1.326 -0.205,2.659 -1.5,4c-0.414,-0.457 -0.914,-0.791 -1.5,-1c-1.333,1 -2.667,2 -4,3c-1.85,-0.742 -2.516,-1.742 -2,-3c-1.713,2.039 -3.379,4.039 -5,6c-1.677,-7.096 -2.343,-14.429 -2,-22c-0.431,-4.532 0.069,-8.865 1.5,-13c3.246,0.487 6.413,1.654 9.5,3.5c-1.017,1.049 -1.184,2.216 -0.5,3.5c0.853,-1.625 1.853,-1.958 3,-1c0.608,-1.566 1.442,-2.9 2.5,-4z" fill="#bcbdbf"/>
  </g>
  <g id="svg_29">
   <path id="svg_30" d="m314,218c0.667,0.667 1.333,1.333 2,2c2.88,8.761 7.547,16.428 14,23c0.325,7.519 -0.008,14.852 -1,22c-4.576,-6.75 -9.742,-13.083 -15.5,-19c-0.195,1.319 -0.028,2.653 0.5,4c-0.996,0.086 -1.829,-0.248 -2.5,-1c0.734,3.459 -0.266,3.793 -3,1c-0.278,0.916 -0.778,1.582 -1.5,2c-1.723,-1.753 -3.223,-3.753 -4.5,-6c-0.49,2.045 -0.323,4.045 0.5,6c-3.321,-1.297 -6.488,-2.964 -9.5,-5c-0.333,1 -0.667,2 -1,3c-0.333,-0.333 -0.667,-0.667 -1,-1c0.437,3.943 -1.229,6.276 -5,7c1.012,2.841 -0.155,4.174 -3.5,4c3.895,-6.779 8.061,-13.445 12.5,-20c0.712,-2.938 0.212,-5.604 -1.5,-8c1.392,-1.773 2.559,-3.773 3.5,-6c0.333,1 0.667,2 1,3c1,-1.667 2,-3.333 3,-5c1.062,0.597 2.228,0.93 3.5,1c2.386,-1.584 4.719,-2.251 7,-2c0.393,-1.784 1.059,-3.45 2,-5z" fill="#4fbbce"/>
  </g>
  <g id="svg_31">
   <path id="svg_32" d="m228,265c0.246,-2.28 0.246,-4.28 0,-6c-0.953,2.408 -2.287,4.575 -4,6.5c-1.249,0.74 -2.249,0.573 -3,-0.5c3.591,-4.768 7.425,-9.435 11.5,-14c0.728,-2.73 0.562,-5.397 -0.5,-8c-2.991,-1.496 -5.991,-2.996 -9,-4.5c-1.314,-2.312 -2.981,-4.312 -5,-6c0.697,-2.528 2.364,-3.694 5,-3.5c4.424,1.376 8.757,3.043 13,5c2.074,11.621 -0.593,21.954 -8,31z" fill="#58bfd1"/>
  </g>
  <g id="svg_33">
   <path id="svg_34" d="m382,221c-0.53,11.456 -2.03,22.789 -4.5,34c-1.165,6.647 -2.998,12.981 -5.5,19c-1.723,0.572 -3.223,0.572 -4.5,0c-1.128,-1.845 -1.628,-3.845 -1.5,-6c-2.834,1.808 -5.834,2.475 -9,2c4.157,-16.784 7.157,-33.784 9,-51c1.644,0.214 3.144,-0.12 4.5,-1c0.308,0.808 0.808,1.475 1.5,2c0.333,-0.667 0.667,-1.333 1,-2c2.356,2.64 4.856,4.307 7.5,5c0.333,-1.667 0.667,-3.333 1,-5c0.483,0.948 0.649,1.948 0.5,3z" fill="#b4b5b7"/>
  </g>
  <g id="svg_35">
   <path id="svg_36" d="m188,224c0.285,1.788 -0.048,3.455 -1,5c-2.159,1.285 -2.826,2.952 -2,5c0.743,-1.408 1.577,-2.741 2.5,-4c0.333,0.333 0.667,0.667 1,1c3.528,-3.082 6.361,-2.582 8.5,1.5c-0.705,1.422 -1.039,2.755 -1,4c0.948,0.483 1.948,0.649 3,0.5c0.187,-2.064 0.687,-4.064 1.5,-6c0.49,1.293 0.657,2.627 0.5,4c1.291,-0.237 2.291,0.096 3,1c1.585,5.837 4.252,11.17 8,16c-1.182,1.6 -2.515,1.933 -4,1c-0.886,0.825 -1.219,1.825 -1,3c-1.052,-0.149 -2.052,0.017 -3,0.5c-0.165,1.117 -0.498,2.284 -1,3.5c-0.876,0.751 -1.876,1.251 -3,1.5c-0.513,1.576 0.154,2.909 2,4c-1.794,1.56 -3.294,1.06 -4.5,-1.5c-1.067,0.691 -2.234,1.191 -3.5,1.5c0.333,0.333 0.667,0.667 1,1c-1.227,2.562 -2.894,4.728 -5,6.5c3.963,-9.051 6.796,-18.384 8.5,-28c-5.505,8.34 -10.505,17.007 -15,26c-0.499,4.989 -0.666,9.989 -0.5,15c-0.824,-3.812 -1.324,-7.812 -1.5,-12c-0.667,-4 -1.333,-4 -2,0c-0.483,-0.948 -0.649,-1.948 -0.5,-3c-1,0 -2,0 -3,0c4.359,-7.709 7.859,-15.709 10.5,-24c-5.709,6.04 -11.043,12.374 -16,19c-0.667,-7.667 -0.667,-15.333 0,-23c7.28,-7.225 11.947,-15.892 14,-26c1.213,2.425 2.379,4.759 3.5,7z" fill="#4fb5c9"/>
  </g>
  <g id="svg_37">
   <path id="svg_38" d="m141,253c1.454,7.398 3.121,14.731 5,22c-0.31,1.238 -0.81,1.238 -1.5,0c-0.333,-1 -0.667,-2 -1,-3c-2.707,0.937 -5.207,2.27 -7.5,4c-2.027,0.027 -4.027,0.027 -6,0c-4.387,-14.599 -7.387,-29.599 -9,-45c1.621,-1.961 3.287,-3.961 5,-6c-0.516,1.258 0.15,2.258 2,3c1.333,-1 2.667,-2 4,-3c0.586,0.209 1.086,0.543 1.5,1c1.295,-1.341 1.795,-2.674 1.5,-4c1.433,3.696 1.1,7.196 -1,10.5c1.72,0.807 2.054,2.307 1,4.5c1.143,2.785 2.143,5.618 3,8.5c-0.13,1.059 -0.63,1.892 -1.5,2.5c-1.156,-1.493 -1.99,-1.326 -2.5,0.5c1.204,3.828 3.537,5.328 7,4.5z" fill="#aeafb1"/>
  </g>
  <g id="svg_39">
   <path id="svg_40" d="m283,260c3.345,0.174 4.512,-1.159 3.5,-4c3.771,-0.724 5.437,-3.057 5,-7c0.333,0.333 0.667,0.667 1,1c0.333,-1 0.667,-2 1,-3c3.012,2.036 6.179,3.703 9.5,5c2,7.166 4.5,14.166 7.5,21c0.678,3.721 0.511,7.388 -0.5,11c-1.347,-0.671 -2.514,-0.671 -3.5,0c-2.593,-5.118 -6.259,-6.452 -11,-4c-1.813,-1.109 -2.646,-0.442 -2.5,2c-1.134,-4.538 -2.301,-9.205 -3.5,-14c-0.333,0.333 -0.667,0.667 -1,1c-1.091,10.103 -1.924,20.103 -2.5,30c0,-1 0,-2 0,-3c0.166,-5.011 -0.001,-10.011 -0.5,-15c-0.667,-1.333 -1.333,-1.333 -2,0c-0.303,-2.388 -1.137,-4.555 -2.5,-6.5c2,-1.667 4,-3.333 6,-5c-0.667,-0.333 -1.333,-0.667 -2,-1c3.493,-1.088 3.659,-2.255 0.5,-3.5c-3.03,0.118 -6.197,0.285 -9.5,0.5c2.791,2.857 3.791,6.024 3,9.5c-3.637,-5.158 -7.137,-10.491 -10.5,-16c-3.854,-7.847 -5.687,-16.18 -5.5,-25c4.655,-1.659 9.322,-3.326 14,-5c4.47,0.275 5.637,2.275 3.5,6c-3.174,3.919 -7.174,6.586 -12,8c-0.422,1.855 -0.922,3.689 -1.5,5.5c3.173,5.338 6.839,10.338 11,15c1.725,-0.749 3.392,-1.915 5,-3.5z" fill="#50b6c9"/>
  </g>
  <g id="svg_41">
   <path id="svg_42" d="m330,243c1.32,7.51 1.32,15.177 0,23c-0.607,-0.124 -0.94,-0.457 -1,-1c0.992,-7.148 1.325,-14.481 1,-22z" fill="#c0dfe5"/>
  </g>
  <g id="svg_43">
   <path id="svg_44" d="m314,250c3.755,9.344 8.422,18.178 14,26.5c-3.422,6.422 -7.255,12.589 -11.5,18.5c0.454,-8.309 0.454,-16.642 0,-25c-3.447,-5.896 -6.614,-11.896 -9.5,-18c0.722,-0.418 1.222,-1.084 1.5,-2c2.734,2.793 3.734,2.459 3,-1c0.671,0.752 1.504,1.086 2.5,1z" fill="#53b2c5"/>
  </g>
  <g id="svg_45">
   <path id="svg_46" d="m176,271c1,0 2,0 3,0c-0.149,1.052 0.017,2.052 0.5,3c0.667,-4 1.333,-4 2,0c0.176,4.188 0.676,8.188 1.5,12c0.377,3.025 0.544,6.025 0.5,9c-4.582,-5.491 -8.415,-11.491 -11.5,-18c1.357,-2.065 2.69,-4.065 4,-6z" fill="#4ca8bc"/>
  </g>
  <g id="svg_47">
   <path id="svg_48" d="m372,274c-2.004,9.345 -5.004,18.345 -9,27c-0.767,-0.672 -1.434,-1.505 -2,-2.5c1.424,-2.101 2.758,-4.267 4,-6.5c-1.674,-2.754 -3.341,-3.087 -5,-1c0.419,1.172 1.085,2.172 2,3c-1.783,1.561 -3.616,1.895 -5.5,1c-0.702,1.295 -1.369,2.628 -2,4c-3.19,-1.572 -5.69,-0.739 -7.5,2.5c0.667,0.667 1.333,1.333 2,2c-1.405,1.269 -3.071,1.769 -5,1.5c4.923,-11.435 9.257,-23.102 13,-35c3.166,0.475 6.166,-0.192 9,-2c-0.128,2.155 0.372,4.155 1.5,6c1.277,0.572 2.777,0.572 4.5,0z" fill="#a1a3a5"/>
  </g>
  <g id="svg_49">
   <path id="svg_50" d="m206,289c0.865,9.132 2.532,18.132 5,27c-0.333,0.667 -0.667,1.333 -1,2c-5.773,-3.972 -11.273,-8.305 -16.5,-13c-1.347,-5.595 -2.18,-11.262 -2.5,-17c0.275,-2.342 1.108,-2.342 2.5,0c3.262,-1.341 3.762,-1.008 1.5,1c0.308,0.808 0.808,1.475 1.5,2c1.144,-2.417 2.81,-3.084 5,-2c-0.077,-1.238 0.089,-2.238 0.5,-3c0.692,0.525 1.192,1.192 1.5,2c0.658,-1.608 0.158,-2.775 -1.5,-3.5c1.829,-0.273 3.329,-1.107 4.5,-2.5c-0.207,2.251 -0.373,4.585 -0.5,7z" fill="#46a2b9"/>
  </g>
  <g id="svg_51">
   <path id="svg_52" d="m146,275c5.272,15.551 11.939,30.551 20,45c-0.996,0.086 -1.829,-0.248 -2.5,-1c-0.471,-1.746 -1.138,-3.413 -2,-5c-0.916,1.985 -2.583,3.985 -5,6c-2,-3.38 -4.333,-3.713 -7,-1c-1.107,-1.212 -1.607,-0.879 -1.5,1c-8.159,-13.669 -14.159,-28.335 -18,-44c1.973,0.027 3.973,0.027 6,0c2.293,-1.73 4.793,-3.063 7.5,-4c0.333,1 0.667,2 1,3c0.69,1.238 1.19,1.238 1.5,0z" fill="#9a9da0"/>
  </g>
  <g id="svg_53">
   <path id="svg_54" d="m233,298c-1.38,0.462 -2.047,1.462 -2,3c0.484,2.301 1.484,4.301 3,6c-0.996,-0.086 -1.829,0.248 -2.5,1c-1.676,-0.6 -3.343,-1.933 -5,-4c-0.711,1.867 -0.211,3.367 1.5,4.5c-0.556,0.383 -0.889,0.883 -1,1.5c-1.29,-0.558 -2.123,-1.558 -2.5,-3c-0.167,0.5 -0.333,1 -0.5,1.5c2.538,8.931 5.038,17.765 7.5,26.5c-4.667,-4 -9.333,-8 -14,-12c-1.587,-8.277 -2.754,-16.61 -3.5,-25c-0.166,-6.675 0,-13.342 0.5,-20c0.273,1.601 0.773,3.101 1.5,4.5c-0.457,0.414 -0.791,0.914 -1,1.5c3.174,1.477 5.84,3.643 8,6.5c-2.401,0.805 -2.234,1.638 0.5,2.5c1.268,-0.116 2.602,-0.449 4,-1c0.333,1 0.667,2 1,3c1.652,0.899 3.152,1.899 4.5,3z" fill="#459fb6"/>
  </g>
  <g id="svg_55">
   <path id="svg_56" d="m310,284c-1.119,6.997 -2.286,13.997 -3.5,21c-5.043,4.712 -10.377,9.045 -16,13c0.908,-8.82 2.075,-17.654 3.5,-26.5c-0.244,-3.186 -0.577,-6.353 -1,-9.5c-0.146,-2.442 0.687,-3.109 2.5,-2c4.741,-2.452 8.407,-1.118 11,4c0.986,-0.671 2.153,-0.671 3.5,0z" fill="#45a4bb"/>
  </g>
  <g id="svg_57">
   <path id="svg_58" d="m269,302c-1.043,2.556 -2.71,4.723 -5,6.5c-4.84,2.919 -9.506,6.086 -14,9.5c-5.351,-3.692 -10.685,-7.359 -16,-11c-1.516,-1.699 -2.516,-3.699 -3,-6c-0.047,-1.538 0.62,-2.538 2,-3c5.217,-2.684 10.717,-4.684 16.5,-6c6.263,1.699 12.429,3.699 18.5,6c0.929,1.189 1.262,2.522 1,4z" fill="#f6f8f7"/>
  </g>
  <g id="svg_59">
   <path id="svg_60" d="m212,252c3.234,4.122 6.234,8.455 9,13c0.751,1.073 1.751,1.24 3,0.5c1.713,-1.925 3.047,-4.092 4,-6.5c0.246,1.72 0.246,3.72 0,6c-1.32,3.306 -3.153,6.306 -5.5,9c-1.233,7.373 1.267,13.206 7.5,17.5c5.451,-0.476 10.784,-1.809 16,-4c1.102,-2.401 1.269,-4.901 0.5,-7.5c-3.7,-4.035 -7.7,-7.702 -12,-11c-0.49,-1.293 -0.657,-2.627 -0.5,-4c10.667,0 21.333,0 32,0c0.157,1.373 -0.01,2.707 -0.5,4c-4.19,3.434 -8.19,7.1 -12,11c-0.769,2.599 -0.602,5.099 0.5,7.5c14.791,8.605 23.124,4.438 25,-12.5c0.791,-3.476 -0.209,-6.643 -3,-9.5c3.303,-0.215 6.47,-0.382 9.5,-0.5c3.159,1.245 2.993,2.412 -0.5,3.5c0.667,0.333 1.333,0.667 2,1c-2,1.667 -4,3.333 -6,5c1.363,1.945 2.197,4.112 2.5,6.5c0.667,-1.333 1.333,-1.333 2,0c0.499,4.989 0.666,9.989 0.5,15c-2.323,-0.329 -5.323,-0.329 -9,0c-2.413,-2.877 -4.247,-2.544 -5.5,1c-0.333,-0.333 -0.667,-0.667 -1,-1c-0.191,2.208 -0.691,4.208 -1.5,6c0.262,-1.478 -0.071,-2.811 -1,-4c-6.071,-2.301 -12.237,-4.301 -18.5,-6c-5.783,1.316 -11.283,3.316 -16.5,6c-1.348,-1.101 -2.848,-2.101 -4.5,-3c-0.333,-1 -0.667,-2 -1,-3c-1.398,0.551 -2.732,0.884 -4,1c-2.734,-0.862 -2.901,-1.695 -0.5,-2.5c-2.16,-2.857 -4.826,-5.023 -8,-6.5c0.209,-0.586 0.543,-1.086 1,-1.5c-0.727,-1.399 -1.227,-2.899 -1.5,-4.5c-0.5,6.658 -0.666,13.325 -0.5,20c-0.83,-9.158 -1.33,-18.491 -1.5,-28c-0.249,-1.124 -0.749,-2.124 -1.5,-3c-1.385,7.527 -3.051,14.86 -5,22c0.127,-2.415 0.293,-4.749 0.5,-7c-1.171,1.393 -2.671,2.227 -4.5,2.5c1.658,0.725 2.158,1.892 1.5,3.5c-0.308,-0.808 -0.808,-1.475 -1.5,-2c-0.411,0.762 -0.577,1.762 -0.5,3c-2.19,-1.084 -3.856,-0.417 -5,2c-0.692,-0.525 -1.192,-1.192 -1.5,-2c2.262,-2.008 1.762,-2.341 -1.5,-1c-1.392,-2.342 -2.225,-2.342 -2.5,0c-1.746,-4.948 -2.079,-9.948 -1,-15c2.106,-1.772 3.773,-3.938 5,-6.5c-0.333,-0.333 -0.667,-0.667 -1,-1c1.266,-0.309 2.433,-0.809 3.5,-1.5c1.206,2.56 2.706,3.06 4.5,1.5c-1.846,-1.091 -2.513,-2.424 -2,-4c1.124,-0.249 2.124,-0.749 3,-1.5c0.502,-1.216 0.835,-2.383 1,-3.5c0.948,-0.483 1.948,-0.649 3,-0.5c-0.219,-1.175 0.114,-2.175 1,-3c1.485,0.933 2.818,0.6 4,-1z" fill="#4cacc1"/>
  </g>
  <g id="svg_61">
   <path id="svg_62" d="m363,301c-1.965,6.597 -4.965,12.597 -9,18c-2.439,-0.553 -4.773,-0.553 -7,0c-0.118,-1.583 -0.951,-3.249 -2.5,-5c0.077,1.238 -0.089,2.238 -0.5,3c-0.781,-1.229 -1.281,-2.562 -1.5,-4c-0.77,-1.098 -1.603,-1.098 -2.5,0c0.826,-2.985 2.159,-5.651 4,-8c1.929,0.269 3.595,-0.231 5,-1.5c-0.667,-0.667 -1.333,-1.333 -2,-2c1.81,-3.239 4.31,-4.072 7.5,-2.5c0.631,-1.372 1.298,-2.705 2,-4c1.884,0.895 3.717,0.561 5.5,-1c-0.915,-0.828 -1.581,-1.828 -2,-3c1.659,-2.087 3.326,-1.754 5,1c-1.242,2.233 -2.576,4.399 -4,6.5c0.566,0.995 1.233,1.828 2,2.5z" fill="#97989a"/>
  </g>
  <g id="svg_63">
   <path id="svg_64" d="m286,296c0,1 0,2 0,3c-0.466,8.097 -1.633,16.097 -3.5,24c-4.667,4 -9.333,8 -14,12c2.87,-9.609 5.536,-19.276 8,-29c-5.585,8.835 -10.919,17.835 -16,27c-3.268,4.884 -6.768,9.551 -10.5,14c-8.44,-11.886 -16.107,-24.219 -23,-37c0.111,-0.617 0.444,-1.117 1,-1.5c-1.711,-1.133 -2.211,-2.633 -1.5,-4.5c1.657,2.067 3.324,3.4 5,4c0.671,-0.752 1.504,-1.086 2.5,-1c5.315,3.641 10.649,7.308 16,11c4.494,-3.414 9.16,-6.581 14,-9.5c2.29,-1.777 3.957,-3.944 5,-6.5c0.809,-1.792 1.309,-3.792 1.5,-6c0.333,0.333 0.667,0.667 1,1c1.253,-3.544 3.087,-3.877 5.5,-1c3.677,-0.329 6.677,-0.329 9,0z" fill="#3f97af"/>
  </g>
  <g id="svg_65">
   <path id="svg_66" d="m166,320c5.302,6.976 10.636,13.976 16,21c-2.511,-0.338 -4.845,-0.338 -7,0c-2.799,-2.318 -5.466,-1.985 -8,1c1.319,2.032 1.319,4.032 0,6c-7.815,-8.286 -14.148,-17.62 -19,-28c-0.107,-1.879 0.393,-2.212 1.5,-1c2.667,-2.713 5,-2.38 7,1c2.417,-2.015 4.084,-4.015 5,-6c0.862,1.587 1.529,3.254 2,5c0.671,0.752 1.504,1.086 2.5,1z" fill="#8b8e91"/>
  </g>
  <g id="svg_67">
   <path id="svg_68" d="m354,319c-2.22,4.772 -4.72,9.438 -7.5,14c-4.364,5.854 -8.864,11.521 -13.5,17c-3.027,-1.126 -3.36,-2.626 -1,-4.5c-1.043,-1.976 -2.377,-2.476 -4,-1.5c-1.953,-0.524 -3.62,-1.524 -5,-3c-1.743,1.538 -3.743,2.538 -6,3c8.855,-9.511 16.521,-19.845 23,-31c0.897,-1.098 1.73,-1.098 2.5,0c0.219,1.438 0.719,2.771 1.5,4c0.411,-0.762 0.577,-1.762 0.5,-3c1.549,1.751 2.382,3.417 2.5,5c2.227,-0.553 4.561,-0.553 7,0z" fill="#8a8b8f"/>
  </g>
  <g id="svg_69">
   <path id="svg_70" d="m182,341c4.333,3.667 8.333,7.667 12,12c-2.227,0.901 -3.227,2.567 -3,5c5.039,-0.049 5.205,0.618 0.5,2c-0.75,-0.626 -1.584,-1.126 -2.5,-1.5c0.951,-0.718 1.117,-1.551 0.5,-2.5c-1,0.333 -2,0.667 -3,1c-0.388,-0.928 -1.055,-1.595 -2,-2c-1.416,1.073 -2.75,1.073 -4,0c-0.692,0.525 -1.192,1.192 -1.5,2c1.029,-0.204 2.029,0.296 3,1.5c-0.714,1.343 -0.38,2.676 1,4c3.17,1.417 6.17,3.084 9,5c-1.619,0.236 -2.619,1.069 -3,2.5c-8.333,-6.333 -15.667,-13.667 -22,-22c1.319,-1.968 1.319,-3.968 0,-6c2.534,-2.985 5.201,-3.318 8,-1c2.155,-0.338 4.489,-0.338 7,0z" fill="#7f8084"/>
  </g>
  <g id="svg_71">
   <path id="svg_72" d="m333,350c-2,2.667 -4.333,5 -7,7c-1.844,0.66 -3.51,1.66 -5,3c-2.363,1.181 -4.697,1.181 -7,0c-0.667,0.667 -1.333,1.333 -2,2c-1.474,-2.823 -1.808,-5.656 -1,-8.5c-0.948,-0.483 -1.948,-0.649 -3,-0.5c2.667,-3.333 5.667,-6.333 9,-9c2.257,-0.462 4.257,-1.462 6,-3c1.38,1.476 3.047,2.476 5,3c1.623,-0.976 2.957,-0.476 4,1.5c-2.36,1.874 -2.027,3.374 1,4.5z" fill="#7e8083"/>
  </g>
  <g id="svg_73">
   <path id="svg_74" d="m308,353c1.052,-0.149 2.052,0.017 3,0.5c-0.808,2.844 -0.474,5.677 1,8.5c0.667,-0.667 1.333,-1.333 2,-2c2.303,1.181 4.637,1.181 7,0c1.49,-1.34 3.156,-2.34 5,-3c-8.136,10.138 -17.803,18.471 -29,25c-0.234,-3.733 -2.234,-5.566 -6,-5.5c0.333,-0.333 0.667,-0.667 1,-1c-1.411,-2.082 -3.078,-3.916 -5,-5.5c7.265,-5.257 14.265,-10.924 21,-17z" fill="#757679"/>
  </g>
  <g id="svg_75">
   <path id="svg_76" d="m194,353c6.735,6.076 13.735,11.743 21,17c-3.675,2.833 -7.509,5.5 -11.5,8c-1.866,-2.659 -3.033,-2.326 -3.5,1c-3.89,-2.771 -7.557,-5.771 -11,-9c0.381,-1.431 1.381,-2.264 3,-2.5c-2.83,-1.916 -5.83,-3.583 -9,-5c-1.38,-1.324 -1.714,-2.657 -1,-4c-0.971,-1.204 -1.971,-1.704 -3,-1.5c0.308,-0.808 0.808,-1.475 1.5,-2c1.25,1.073 2.584,1.073 4,0c0.945,0.405 1.612,1.072 2,2c1,-0.333 2,-0.667 3,-1c0.617,0.949 0.451,1.782 -0.5,2.5c0.916,0.374 1.75,0.874 2.5,1.5c4.705,-1.382 4.539,-2.049 -0.5,-2c-0.227,-2.433 0.773,-4.099 3,-5z" fill="#76787a"/>
  </g>
  <g id="svg_77">
   <path id="svg_78" d="m215,370c11.365,7.686 23.365,14.352 36,20c12.635,-5.648 24.635,-12.314 36,-20c1.922,1.584 3.589,3.418 5,5.5c-0.333,0.333 -0.667,0.667 -1,1c3.766,-0.066 5.766,1.767 6,5.5c-14.321,10.502 -29.654,19.502 -46,27c-18.035,-8.395 -35.035,-18.395 -51,-30c0.467,-3.326 1.634,-3.659 3.5,-1c3.991,-2.5 7.825,-5.167 11.5,-8z" fill="#696b6e"/>
  </g>
 </g>
</svg>